<?xml version="1.0" standalone="no"?>
<!DOCTYPE svg PUBLIC "-//W3C//DTD SVG 20010904//EN"
 "http://www.w3.org/TR/2001/REC-SVG-20010904/DTD/svg10.dtd">
<svg version="1.0" xmlns="http://www.w3.org/2000/svg"
 width="600.000000pt" height="600.000000pt" viewBox="0 0 600.000000 600.000000"
 preserveAspectRatio="xMidYMid meet">
<metadata>
Created by potrace 1.11, written by Peter Selinger 2001-2013
</metadata>
<g transform="translate(0.000000,600.000000) scale(0.100000,-0.100000)"
fill="#000000" stroke="none">
<path d="M180 5447 c12 -13 249 -147 505 -287 28 -15 73 -40 100 -55 28 -16
101 -57 164 -92 62 -34 115 -63 117 -63 1 0 29 -15 61 -34 32 -19 144 -81 248
-139 105 -57 210 -116 235 -129 25 -14 70 -39 100 -55 30 -17 138 -77 240
-134 l185 -103 875 -1 875 -1 135 69 c74 38 171 88 215 112 44 23 125 66 180
95 221 117 273 145 338 182 38 22 66 42 64 45 -3 2 -18 6 -34 8 -15 2 -48 7
-73 10 -25 3 -79 10 -120 15 -41 6 -95 13 -120 15 -25 3 -61 8 -80 11 -19 2
-53 7 -75 10 -61 7 -106 13 -150 19 -22 3 -56 7 -75 9 -19 3 -143 18 -275 35
-251 32 -275 36 -365 47 -30 3 -63 8 -72 9 -9 2 -44 6 -77 10 -33 3 -68 7 -78
9 -10 2 -45 7 -78 10 -33 4 -71 9 -85 11 -53 8 -107 15 -147 20 -71 8 -273 34
-388 49 -11 2 -49 6 -85 10 -36 4 -76 9 -90 11 -23 4 -51 8 -150 20 -22 3 -59
7 -82 10 -24 3 -59 8 -78 10 -19 2 -48 6 -65 9 -16 2 -55 7 -85 11 -30 3 -66
7 -80 9 -14 3 -52 8 -85 11 -33 4 -69 9 -80 10 -11 2 -42 6 -70 9 -27 4 -66 9
-85 11 -60 8 -593 75 -635 80 -22 3 -60 8 -85 11 -25 3 -56 7 -70 9 -14 2 -47
6 -75 9 -27 4 -70 9 -95 12 -25 3 -56 7 -70 10 -14 2 -50 6 -80 10 -30 3 -66
7 -80 10 -14 2 -45 7 -69 10 -25 3 -50 8 -55 11 -6 3 -4 -1 4 -10z"/>
<path d="M5705 5136 c-22 -12 -94 -51 -160 -85 -66 -35 -147 -78 -180 -96 -33
-18 -177 -96 -320 -173 -259 -139 -282 -152 -425 -229 -41 -23 -138 -75 -215
-117 l-140 -76 100 -1 c55 0 215 -1 355 -2 l255 -2 3 -75 c1 -41 3 -79 5 -84
3 -8 188 221 546 674 89 113 170 214 180 225 17 19 45 65 39 65 -2 -1 -21 -11
-43 -24z"/>
<path d="M1057 4773 c4 -10 46 -108 93 -218 l86 -200 221 0 c121 0 249 2 284
5 l64 5 -40 24 c-22 13 -56 33 -75 44 -19 10 -87 49 -150 85 -63 36 -135 76
-160 90 -25 14 -107 60 -182 103 -76 44 -140 79 -142 79 -3 0 -2 -8 1 -17z"/>
<path d="M1049 4235 c-7 -132 -2 -1098 6 -1103 11 -7 3815 -9 3816 -2 1 3 2
256 3 563 l1 557 -35 0 c-19 1 -880 2 -1912 3 -1872 2 -1878 2 -1879 -18z
m616 -513 c0 -173 -2 -317 -5 -320 -3 -4 -42 -7 -88 -7 -91 0 -97 4 -90 68 3
30 1 32 -31 35 -56 6 -75 -4 -98 -52 -21 -42 -24 -44 -70 -47 -26 -2 -69 -2
-95 1 l-47 5 154 312 c85 171 160 313 167 316 7 2 56 4 108 3 l95 -1 0 -313z
m471 303 c58 -10 97 -82 80 -149 -6 -25 -9 -26 -91 -26 -84 0 -85 0 -85 25 0
32 -25 43 -50 20 -18 -16 -19 -52 -2 -64 4 -3 42 -29 84 -58 81 -56 97 -81 92
-143 -8 -89 -59 -177 -122 -209 -104 -52 -260 -44 -321 17 -21 21 -27 124 -8
143 24 25 180 12 176 -14 -6 -50 20 -62 61 -29 37 30 21 61 -57 111 -111 72
-123 90 -112 166 22 164 159 245 355 210z m560 2 c11 -10 -25 -117 -41 -123
-7 -3 -31 -7 -52 -8 -31 -1 -41 -7 -52 -31 -11 -24 -91 -318 -88 -328 1 -6
-27 -114 -34 -128 -6 -12 -22 -14 -81 -12 -40 2 -78 5 -85 8 -14 5 -11 27 37
235 45 197 55 250 43 251 -4 1 -24 3 -43 5 -56 6 -60 9 -50 43 5 17 7 31 4 31
-16 0 30 59 48 62 44 7 387 2 394 -5z m393 -25 l36 -29 -1 -100 c-2 -114 -28
-234 -73 -328 -52 -111 -124 -157 -245 -158 -79 0 -151 27 -174 64 -14 22 -18
130 -7 179 4 14 8 36 11 50 9 42 41 143 63 192 55 129 126 169 285 162 59 -2
74 -7 105 -32z m512 0 c50 -56 37 -161 -31 -238 -34 -40 -35 -45 -15 -83 8
-16 12 -41 9 -57 -13 -77 -43 -217 -47 -221 -5 -4 -69 -7 -129 -4 -36 1 -38 3
-38 34 0 17 5 50 9 72 26 114 21 162 -13 149 -21 -8 -31 -32 -61 -152 -13 -52
-25 -95 -27 -97 -3 -4 -93 -7 -146 -6 -32 1 -33 2 -27 39 17 100 135 574 146
588 6 7 67 10 175 10 l166 -1 29 -33z m315 25 c3 -3 1 -29 -5 -59 -6 -29 -13
-62 -15 -73 -2 -11 -12 -51 -21 -90 -24 -100 -24 -100 -43 -205 -9 -53 -5 -80
13 -80 21 0 34 24 55 101 10 41 28 108 40 149 11 41 22 86 25 100 3 14 13 57
23 95 l18 70 80 1 c93 2 105 -4 94 -49 -5 -18 -11 -43 -14 -57 -8 -43 -76
-300 -93 -349 -23 -71 -63 -139 -92 -158 -57 -37 -196 -49 -274 -24 -57 19
-77 55 -72 132 2 36 11 96 20 134 9 39 18 75 19 80 1 6 18 74 36 153 l34 144
83 -5 c46 -2 86 -7 89 -10z m540 -13 c4 -28 12 -130 13 -171 1 -52 16 -39 33
30 28 106 41 152 45 157 6 7 173 8 168 1 -2 -4 -6 -18 -9 -32 -2 -13 -12 -55
-21 -94 -9 -38 -18 -74 -19 -80 -1 -5 -5 -19 -9 -30 -3 -11 -8 -31 -11 -45 -2
-14 -23 -99 -46 -190 l-42 -165 -94 1 c-52 1 -96 3 -98 5 -4 4 -14 145 -15
208 -1 55 -18 26 -44 -74 -37 -140 -34 -137 -132 -137 -70 0 -68 -1 -62 40 7
43 7 44 42 187 63 254 104 397 118 406 5 4 48 6 95 5 79 -1 85 -3 88 -22z"/>
<path d="M1456 3730 c-14 -43 -26 -84 -26 -90 0 -5 20 -10 44 -10 l45 0 -1 72
c-1 40 -3 81 -6 90 -10 39 -31 15 -56 -62z"/>
<path d="M2909 3897 c-37 -28 -116 -309 -103 -364 5 -19 9 -21 26 -12 26 14
53 80 86 213 24 98 28 125 23 166 -1 13 -12 12 -32 -3z"/>
<path d="M3393 3933 c-12 -4 -53 -120 -53 -148 0 -7 9 -15 19 -18 37 -9 103
86 92 132 -7 24 -36 42 -58 34z"/>
<path d="M1918 3020 l-87 -5 45 -105 c24 -58 53 -123 63 -145 10 -22 40 -89
66 -150 26 -60 55 -128 65 -150 35 -79 371 -837 523 -1180 85 -192 167 -377
182 -410 15 -33 34 -76 42 -95 36 -84 44 -100 48 -100 2 0 4 527 5 1170 0 942
-2 1170 -12 1171 -38 4 -866 3 -940 -1z"/>
<path d="M3041 3020 c-11 -8 -4 -1180 8 -1227 4 -13 10 -19 16 -15 13 9 105
122 290 357 82 105 158 199 167 210 9 11 110 137 223 280 113 143 211 267 218
275 7 8 30 36 51 63 21 26 36 50 33 54 -8 7 -995 11 -1006 3z"/>
</g>
</svg>
